# AST/ASF file generated using VICON BodyLanguage
# -----------------------------------------------
:version 1.10
:name VICON
:units
  mass 1.0
  length 0.45
  angle deg
:documentation
   .ast/.asf automatically generated from VICON data using
   VICON BodyBuilder and BodyLanguage model FoxedUp or BRILLIANT.MOD
:root
   order TX TY TZ RX RY RZ
   axis XYZ
   position 0 0 0  
   orientation 0 0 0 
:bonedata
  begin
     id 1 
     name lhipjoint
     direction 0.700308 -0.549349 0.455834 
     length 2.59063 
     axis 0 0 0  XYZ
  end
  begin
     id 2 
     name lfemur
     direction 0.34202 -0.939693 0  
     length 6.31066  
     axis 0 0 20  XYZ
    dof rx ry rz
    limits (-160.0 20.0)
           (-70.0 70.0)
           (-60.0 70.0)
  end
  begin
     id 3 
     name ltibia
     direction 0.34202 -0.939693 0   
     length 7.36093   
     axis 0 0 20   XYZ
    dof rx
    limits (-10.0 170.0)
  end
  begin
     id 4 
     name lfoot
     direction 0.0905332 -0.248738 0.96433   
     length 2.0233   
     axis -90 7.62852e-016 20   XYZ
    dof rx rz
    limits (-45.0 90.0)
           (-70.0 20.0)
  end
  begin
     id 5 
     name ltoes
     direction 1.53573e-011 -4.21855e-011 1   
     length 1.01524   
     axis -90 7.62852e-016 20   XYZ
    dof rx
    limits (-90.0 20.0)
  end
  begin
     id 6 
     name rhipjoint
     direction -0.61416 -0.607328 0.503944   
     length 2.34332  
     axis 0 0 0  XYZ 
  end
  begin
     id 7 
     name rfemur
     direction -0.34202 -0.939693 0   
     length 6.58548   
     axis 0 0 -20   XYZ
    dof rx ry rz
    limits (-160.0 20.0)
           (-70.0 70.0)
           (-70.0 60.0)
  end
  begin
     id 8 
     name rtibia
     direction -0.34202 -0.939693 0   
     length 7.20707   
     axis 0 0 -20   XYZ
    dof rx
    limits (-10.0 170.0)
 end
 begin
     id 9 
     name rfoot
     direction -0.136772 -0.375778 0.916561   
     length 1.92184  
     axis -90 -7.62852e-016 -20   XYZ
    dof rx rz
    limits (-45.0 90.0)
           (-20.0 70.0)
  end
  begin
     id 10 
     name rtoes
     direction -1.53535e-011 -4.21828e-011 1   
     length 0.951089   
     axis -90 -7.62852e-016 -20   XYZ
    dof rx
    limits (-90.0 20.0)
  end
  begin
     id 11 
     name lowerback
     direction -0.0444974 0.988086 -0.147332   
     length 1.9609   
     axis 0 0 0   XYZ
    dof rx ry rz
    limits (-20.0 45.0)
           (-30.0 30.0)
           (-30.0 30.0)
  end
  begin
     id 12 
     name upperback
     direction 0.00613146 0.999513 0.0306081   
     length 1.94944   
     axis 0 0 0   XYZ
    dof rx ry rz
    limits (-20.0 45.0)
           (-30.0 30.0)
           (-30.0 30.0)
  end
  begin
     id 13 
     name thorax
     direction 0.0254621 0.994518 0.101418   
     length 2.0119   
     axis 0 0 0   XYZ
    dof rx ry rz
    limits (-20.0 45.0)
           (-30.0 30.0)
           (-30.0 30.0)
  end
  begin
     id 14 
     name lowerneck
     direction 0.0168698 0.977854 0.208608   
     length 1.6375   
     axis 0 0 0   XYZ
    dof rx ry rz
    limits (-20.0 45.0)
           (-30.0 30.0)
           (-30.0 30.0)
  end
  begin
     id 15 
     name upperneck
     direction -0.0283988 0.989338 -0.142843   
     length 1.6851   
     axis 0 0 0   XYZ
    dof rx ry rz
    limits (-20.0 45.0)
           (-30.0 30.0)
           (-30.0 30.0)
  end
  begin
     id 16
     name head
     direction -0.0129422 0.99741 -0.0707489  
     length 1.69029  
     axis 0 0 0   XYZ
    dof rx ry rz
    limits (-20.0 45.0)
           (-30.0 30.0)
           (-30.0 30.0)
  end
  begin
     id 17 
     name lclavicle
     direction 0.820295 0.564628 -0.0911715  
     length 3.16484  
     axis 0 0 0   XYZ
    dof ry rz
    limits (-20.0 10.0)
           (0.0 20.0)
  end
  begin
     id 18 
     name lhumerus
     direction 1 -4.48969e-011 1.00186e-027   
     length 5.17853   
     axis 180 -30 -90   XYZ
    dof rx ry rz
    limits (-60.0 90.0)
           (-90.0 90.0)
           (-90.0 90.0)
  end
  begin
     id 19
     name lradius
     direction 1 -4.48966e-011 -1.52922e-027   
     length 3.40399   
     axis 180 -30 -90   XYZ
    dof rx
    limits (-10.0 170.0)
  end
  begin
     id 20
     name lwrist
     direction 1 -4.48981e-011 -3.80893e-027   
     length 1.70199   
     axis 1.1049e-015 90 90   XYZ
    dof ry
    limits (-180.0 0.0)
 end
  begin
     id 21 
     name lhand
     direction 1 -4.48957e-011 -7.61786e-027   
     length 0.708964   
     axis 4.86085e-015 90 90   XYZ
    dof rx rz
    limits (-90.0 90.0)
           (-45.0 45.0)
  end
  begin
     id 22 
     name lfingers
     direction 1 -4.48929e-011 -1.52357e-026   
     length 0.571585   
     axis 9.7217e-015 90 90   XYZ
    dof rx
    limits (0.0 90.0)
  end
  begin
     id 23
     name lthumb
     direction 0.707107 -6.34905e-011 0.707107   
     length 0.820685   
     axis -90 45 2.85299e-015   XYZ
    dof rx rz
    limits (-45.0 45.0)
           (-45.0 45.0)
  end
  begin
     id 24 
     name rclavicle
     direction -0.858602 0.463947 -0.218075   
     length 3.35137  
     axis 0 0 0   XYZ 
    dof ry rz
    limits (-10.0 20.0)
           (-20.0 0.0)
  end
  begin
     id 25 
     name rhumerus
     direction -1 -4.48969e-011 -1.98511e-027  
     length 5.42351   
     axis 180 30 90   XYZ
    dof rx ry rz
    limits (-90.0 60.0)
           (-90.0 90.0)
           (-90.0 90.0)
  end
  begin
     id 26 
     name rradius
     direction -1 -4.48961e-011 -2.82624e-027   
     length 3.42066   
     axis 180 30 90   XYZ
    dof rx
    limits (-10.0 170.0)
  end
  begin
     id 27 
     name rwrist
     direction -1 -4.48966e-011 -3.80893e-027   
     length 1.71033   
     axis 1.1049e-015 -90 -90   XYZ
    dof ry
    limits (-180.0 0.0)
  end
  begin
     id 28
     name rhand
     direction -1 -4.48964e-011 -7.61786e-027   
     length 0.743608   
     axis 4.86085e-015 -90 -90   XYZ
    dof rx rz
    limits (-90.0 90.0)
           (-45.0 45.0)
  end
  begin
     id 29
     name rfingers
     direction -1 -4.48961e-011 -1.52357e-026   
     length 0.599516   
     axis 9.7217e-015 -90 -90   XYZ
    dof rx
    limits (0.0 90.0)
  end
  begin
     id 30
     name rthumb
     direction -0.707107 -6.34913e-011 0.707107   
     length 0.860789   
     axis -90 -45 -2.85299e-015   XYZ
    dof rx rz
    limits (-45.0 45.0)
           (-45.0 45.0)
  end
:hierarchy
  begin
    root lhipjoint rhipjoint lowerback
    lhipjoint lfemur
    lfemur ltibia
    ltibia lfoot
    lfoot ltoes
    rhipjoint rfemur
    rfemur rtibia
    rtibia rfoot
    rfoot rtoes
    lowerback upperback
    upperback thorax
    thorax lowerneck lclavicle rclavicle
    lowerneck upperneck
    upperneck head
    lclavicle lhumerus
    lhumerus lradius
    lradius lwrist
    lwrist lhand lthumb
    lhand lfingers
    rclavicle rhumerus
    rhumerus rradius
    rradius rwrist
    rwrist rhand rthumb
    rhand rfingers
  end

#!OML:ASF E:\mmandel\Project 1\Capture day 1\Session 2\Subject.ASF
:FULLY-SPECIFIED
:DEGREES
230
root -3.32936 2.22556 -0.948609 157.14 81.6224 -138.062
lowerback 34.2605 -0.599694 -2.60472
upperback 15.862 0.729538 1.27352
thorax -0.0362451 1.20085 2.48231
lowerneck -6.31318 -0.940416 5.26548
upperneck 44.0862 -1.45729 5.39374
head 17.32 2.18947 1.68362
rclavicle -1.25234e-014 9.14409e-015
rhumerus -11.0385 22.6501 -62.2999
rradius 50.4607
rwrist -5.59734
rhand -2.64307 28.5342
rfingers 7.12502
rthumb 23.0565 -0.106509
lclavicle -1.25234e-014 9.14409e-015
lhumerus 8.53343 -34.6884 42.9533
lradius 62.6913
lwrist 33.2145
lhand -22.8179 -23.562
lfingers 7.12502
lthumb 3.619 6.38699
rfemur -57.5815 -9.30154 20.4669
rtibia 71.1654
rfoot 12.8273 -3.86886
rtoes -11.9023
lfemur -58.5597 22.685 -11.6802
ltibia 65.0654
lfoot 17.3044 -6.90715
ltoes 7.91191
231
root -3.30719 2.23776 -0.950526 160.144 81.2275 -136.025
lowerback 33.3294 -0.901966 -2.27724
upperback 16.0089 0.436172 1.28038
thorax 0.464073 1.05205 2.42012
lowerneck -6.34912 -0.892047 5.3285
upperneck 43.8558 -1.43475 5.3934
head 17.1924 2.18206 1.65559
rclavicle 1.5704e-014 4.33351e-014
rhumerus -11.8683 22.7515 -62.4651
rradius 51.5456
rwrist -6.32486
rhand -3.01844 28.2148
rfingers 7.12502
rthumb 22.6963 -0.470504
lclavicle 1.5704e-014 4.33351e-014
lhumerus 7.06038 -34.5875 43.3464
lradius 63.271
lwrist 34.8118
lhand -23.9569 -22.8381
lfingers 7.12502
lthumb 2.51899 7.12682
rfemur -58.6673 -9.87886 20.746
rtibia 71.3113
rfoot 12.8028 -3.76515
rtoes -11.9782
lfemur -59.9371 22.3143 -11.8912
ltibia 65.2514
lfoot 17.5019 -7.12472
ltoes 9.28687
232
root -3.29216 2.25204 -0.959537 161.386 81.3853 -135.261
lowerback 33.3877 -0.912071 -2.16037
upperback 16.0098 0.460718 1.32053
thorax 0.44106 1.06992 2.39233
lowerneck -6.44789 -0.829755 5.30151
upperneck 43.7952 -1.39427 5.49546
head 17.1842 2.19774 1.70902
rclavicle 1.99779e-014 8.74653e-015
rhumerus -12.949 22.8545 -62.6123
rradius 52.682
rwrist -7.01996
rhand -3.54151 27.9537
rfingers 7.12502
rthumb 22.1942 -0.792117
lclavicle 1.99779e-014 8.74653e-015
lhumerus 5.52333 -34.8325 43.8893
lradius 63.7268
lwrist 36.2387
lhand -24.9251 -22.0998
lfingers 7.12502
lthumb 1.58391 7.87404
rfemur -59.1866 -10.044 20.9969
rtibia 71.4053
rfoot 12.8827 -3.54991
rtoes -11.961
lfemur -60.5092 22.3491 -11.8287
ltibia 65.4363
lfoot 17.832 -7.00162
ltoes 9.82179
233
root -3.27975 2.25687 -0.968801 160.198 81.6877 -136.668
lowerback 34.0158 -0.752652 -2.34531
upperback 15.9591 0.623507 1.29882
thorax 0.157882 1.15599 2.40971
lowerneck -6.45487 -0.850504 5.18056
upperneck 43.6999 -1.47341 5.65934
head 17.1346 2.15619 1.7864
rclavicle -1.49089e-015 -2.14687e-014
rhumerus -14.0802 22.8458 -62.7594
rradius 53.8246
rwrist -7.77939
rhand -4.00466 27.8547
rfingers 7.12502
rthumb 21.7495 -0.943423
lclavicle -1.49089e-015 -2.14687e-014
lhumerus 4.13648 -35.2929 44.3855
lradius 64.0765
lwrist 37.7055
lhand -25.7746 -21.4047
lfingers 7.12502
lthumb 0.763402 8.57364
rfemur -59.4875 -9.98546 20.921
rtibia 71.5032
rfoot 13.0125 -3.26728
rtoes -12.1318
lfemur -60.6866 22.5839 -11.9473
ltibia 65.5863
lfoot 18.1875 -6.87628
ltoes 8.93181
234
root -3.26499 2.25459 -0.975897 158.139 81.6796 -139.143
lowerback 34.4505 -0.715653 -2.55532
upperback 15.872 0.603145 1.14019
thorax -0.0819547 1.14759 2.35219
lowerneck -6.40614 -0.91098 5.0016
upperneck 43.5627 -1.61599 5.86185
head 17.0484 2.07973 1.87795
rclavicle 2.21645e-014 -3.97569e-016
rhumerus -15.2248 22.7805 -63.0659
rradius 54.9567
rwrist -8.60057
rhand -4.3513 27.7956
rfingers 7.12502
rthumb 21.4166 -1.04068
lclavicle 2.21645e-014 -3.97569e-016
lhumerus 2.73911 -35.9161 44.6412
lradius 64.4595
lwrist 39.0523
lhand -26.4644 -20.7664
lfingers 7.12502
lthumb 0.097252 9.21335
rfemur -60.0783 -10.1158 20.6025
rtibia 71.7
rfoot 13.0774 -2.89584
rtoes -12.8294
lfemur -61.1851 22.7016 -12.5093
ltibia 65.662
lfoot 18.515 -6.91545
ltoes 7.9467
235
root -3.25334 2.25455 -0.982156 156.256 81.661 -141.552
lowerback 34.9384 -0.745895 -2.76396
upperback 15.6568 0.46747 0.93955
thorax -0.470856 1.07554 2.28142
lowerneck -6.37992 -0.909659 4.96655
upperneck 43.4334 -1.5705 5.70432
head 16.9597 2.05249 1.80506
rclavicle 4.87022e-015 -4.33351e-014
rhumerus -16.3763 22.9795 -63.4738
rradius 56.0918
rwrist -9.53185
rhand -4.65092 27.6762
rfingers 7.12502
rthumb 21.1288 -1.19252
lclavicle 4.87022e-015 -4.33351e-014
lhumerus 0.994628 -36.6469 44.9519
lradius 64.7999
lwrist 40.136
lhand -26.8524 -19.9446
lfingers 7.12502
lthumb -0.277552 10.035
rfemur -60.7826 -10.2583 20.33
rtibia 71.9108
rfoot 13.0533 -2.54711
rtoes -13.5084
lfemur -61.7842 22.8423 -13.1103
ltibia 65.7097
lfoot 18.9066 -6.98136
ltoes 7.74882
236
root -3.23316 2.27428 -0.971236 148.448 81.2644 -150.361
lowerback 34.6418 -0.215029 -4.53435
upperback 15.6281 0.57355 0.871645
thorax -0.377438 1.01566 3.11388
lowerneck -6.32215 -0.943447 5.05219
upperneck 43.0595 -1.51079 5.2432
head 16.7145 1.98997 1.55595
rclavicle -8.24956e-015 -7.15625e-015
rhumerus -17.2537 23.1214 -63.4219
rradius 57.3315
rwrist -10.7585
rhand -5.07277 27.2987
rfingers 7.12502
rthumb 20.7235 -1.61475
lclavicle -8.24956e-015 -7.15625e-015
lhumerus -0.438633 -37.278 45.4761
lradius 65.0476
lwrist 41.1687
lhand -26.5751 -18.8097
lfingers 7.12502
lthumb -0.00965805 11.17
rfemur -62.1148 -10.2406 19.0585
rtibia 72.2499
rfoot 13.175 -2.40705
rtoes -13.2303
lfemur -62.5588 22.8767 -14.7891
ltibia 65.6482
lfoot 19.129 -6.80757
ltoes 8.3733
237
root -3.21624 2.28372 -0.973609 145.068 81.198 -154.328
lowerback 34.6658 0.0508409 -5.17177
upperback 15.6752 0.72307 0.775237
thorax -0.330872 1.06184 3.30307
lowerneck -6.36839 -0.903113 5.08822
upperneck 42.899 -1.51488 5.34904
head 16.6382 1.99191 1.58523
rclavicle -1.61016e-014 3.97569e-015
rhumerus -18.3314 22.9028 -63.6297
rradius 58.5606
rwrist -12.1313
rhand -5.65547 26.8973
rfingers 7.12502
rthumb 20.1635 -2.07624
lclavicle -1.61016e-014 3.97569e-015
lhumerus -1.59862 -38.1594 45.7805
lradius 65.3727
lwrist 42.3892
lhand -25.9737 -17.8596
lfingers 7.12502
lthumb 0.5711 12.1194
rfemur -62.912 -10.2368 18.5752
rtibia 72.5295
rfoot 13.3612 -2.36488
rtoes -12.6838
lfemur -63.0957 23.0019 -15.5031
ltibia 65.6799
lfoot 19.4082 -6.73921
ltoes 9.37274
238
root -3.20107 2.29009 -0.978106 145.095 81.4144 -154.549
lowerback 35.0437 0.131828 -5.1601
upperback 15.7545 0.84794 0.79041
thorax -0.383261 1.14013 3.26842
lowerneck -6.34418 -1.09583 4.76687
upperneck 42.6233 -1.8241 5.47529
head 16.4817 1.79996 1.63301
rclavicle -4.1546e-014 -1.11319e-014
rhumerus -19.3648 22.6827 -63.9103
rradius 59.679
rwrist -13.4529
rhand -6.32623 26.6739
rfingers 7.12502
rthumb 19.5187 -2.36639
lclavicle -4.1546e-014 -1.11319e-014
lhumerus -2.83553 -39.1528 46.1143
lradius 65.7106
lwrist 43.7667
lhand -25.7655 -17.124
lfingers 7.12502
lthumb 0.772229 12.8544
rfemur -63.2006 -10.2809 18.7587
rtibia 72.7021
rfoot 13.2932 -2.25157
rtoes -12.3935
lfemur -63.3839 23.3103 -15.5337
ltibia 65.7177
lfoot 19.9004 -6.59954
ltoes 11.0965
239
root -3.16924 2.31421 -0.969042 153.833 80.1537 -147.143
lowerback 33.9191 -0.637493 -4.38736
upperback 15.6257 0.0939955 1.06453
thorax -0.0991163 0.748065 3.39392
lowerneck -6.25746 -1.01206 4.63163
upperneck 42.5502 -1.71982 5.64611
head 16.4214 1.83722 1.74302
rclavicle 1.19271e-015 -4.13472e-014
rhumerus -20.7368 22.8114 -64.2665
rradius 60.9233
rwrist -14.8423
rhand -7.0489 26.3289
rfingers 7.12502
rthumb 18.8238 -2.78026
lclavicle 1.19271e-015 -4.13472e-014
lhumerus -4.62328 -40.3851 46.7325
lradius 66.1033
lwrist 45.1123
lhand -25.3728 -16.1148
lfingers 7.12502
lthumb 1.15156 13.8618
rfemur -64.6173 -11.7647 19.3229
rtibia 73.0925
rfoot 12.7447 -2.38744
rtoes -11.7042
lfemur -65.4424 21.987 -15.8982
ltibia 65.7114
lfoot 20.5671 -6.78887
ltoes 11.0601
